<?xml version="1.0" encoding="UTF-8"?>
<svg id="Layer_1" xmlns="http://www.w3.org/2000/svg" version="1.1" viewBox="0 0 353.9 776.7">
  <!-- Generator: Adobe Illustrator 29.2.1, SVG Export Plug-In . SVG Version: 2.1.0 Build 116)  -->
  <defs>
    <style>
      .st0 {
        fill: #fff;
      }
    </style>
  </defs>
  <path class="st0" d="M239.5,442s27.7-20.4,42.9-41c35.2-47.6,49.5-102.4,45.9-161.2-3.9-63.7-28.3-118.9-73.6-164.5C213.5,33.7,163.3,10.2,105.5,2.3c-6.7-1.1-13.6-.2-20.2-1.9,21.3-1.5,43.6,1.4,64.8,3.8,97.8,15.6,173.6,107.3,192.7,176.7,22.6,81.9,13.6,178.7-51.4,250-24.3,26.6-35.8,30.7-57.3,47.8-3.6,2.8-10.8,9.2-11.9,14.2-12,50.1-27.1,101.5-38.6,153.7-3.7,17-23,105.2-28.8,121.6-5.4,15.4-25.3,8.5-21.4-8.3,7.5-32.1,34.4-152.1,43.3-195.1,4.4-21.3,7.6-44.1,13.3-65.2.7-2.8,2.2-1.7,0,0-36,24.4-77,32.9-118.9,22.1-33.6-8.7-51.8-35.5-62.3-67.2-16.5-50-6.6-98.9,7.3-147.5,15-52.7,35.2-103.1,69.5-146.5,17.6-22.3,49.2-46.2,78.3-48.4,44.1-3.2,80.8,27.8,87.8,70.7,1.9,11.7-16.2,19.2-18.9,9.6-5.3-19.4-12.6-37.2-30.3-49.7-21.5-15.2-62.5-4.4-90.6,24.5-19.6,20.1-25,30.2-47.7,73.7-14.3,27.4-26,64.9-34.3,106.9-8.3,42-11.8,83.3,9.5,122.3,12,22,42.8,37.6,74,34.1,23.3-2.6,44.1-8.1,63.8-22.2,17.4-12.5,29.8-26.6,32.6-47.6.7-5.4-2.9-12.8-6.9-17.1-11.6-12.6-24.8-23.7-36.4-36.3-9.3-10-19.4-4.8-29.4-3.5-13.4,1.8-26.7,4.6-40.1,6-3.3.4-9-1.9-10-4.4-1.2-3.1-.2-9.4,2.3-11.4,18-14.6,37.8-28.4,61.9-20.4,20.6,6.8,37.4-2.6,55.3-6.7,23.9-5.5,47.1-13.6,70.7-20.1,3-.8,7.6.6,10,2.7,1.6,1.5,1.9,6.5.6,8.9-10.9,21.1-24.7,46.7-31.2,63.9s-11.1,28.7-17,46c-.2.5.1-.5,0,0,.3-.2,0,0,0,0h0ZM256.8,347.8c-1.3.1-2.1.1-2.8.3-22.1,6.3-44.3,12.7-66.4,19.1-.5.1-1,2.4-.6,2.8,11.7,11.8,23.4,23.5,35.2,35.2.3.3,2.3-.2,2.6-.8,5.6-10.1,11.1-20.3,16.7-30.4,4.8-8.6,9.8-17,15.2-26.3Z"/>
</svg>